<mxfile host="app.diagrams.net" agent="Mozilla/5.0 (Windows NT 10.0; Win64; x64) AppleWebKit/537.36 (KHTML, like Gecko) Chrome/131.0.0.0 Safari/537.36" version="26.0.6">
  <diagram name="Page-1" id="5Z3uT9RHqZk-DdJaZsKZ">
    <mxGraphModel dx="1050" dy="522" grid="1" gridSize="10" guides="1" tooltips="1" connect="1" arrows="1" fold="1" page="1" pageScale="1" pageWidth="850" pageHeight="1100" math="0" shadow="0">
      <root>
        <mxCell id="0" />
        <mxCell id="1" parent="0" />
        <mxCell id="pAiBc-lid5p5WxfmYLZG-3" value="Text" style="ellipse;whiteSpace=wrap;html=1;" vertex="1" parent="1">
          <mxGeometry x="160" y="60" width="120" height="80" as="geometry" />
        </mxCell>
        <mxCell id="pAiBc-lid5p5WxfmYLZG-6" value="next" style="edgeStyle=orthogonalEdgeStyle;rounded=0;orthogonalLoop=1;jettySize=auto;html=1;entryX=0.5;entryY=1;entryDx=0;entryDy=0;" edge="1" parent="1" source="pAiBc-lid5p5WxfmYLZG-5" target="pAiBc-lid5p5WxfmYLZG-3">
          <mxGeometry relative="1" as="geometry" />
        </mxCell>
        <mxCell id="pAiBc-lid5p5WxfmYLZG-5" value="" style="ellipse;whiteSpace=wrap;html=1;aspect=fixed;" vertex="1" parent="1">
          <mxGeometry x="180" y="200" width="80" height="80" as="geometry" />
        </mxCell>
        <mxCell id="pAiBc-lid5p5WxfmYLZG-8" style="edgeStyle=orthogonalEdgeStyle;rounded=0;orthogonalLoop=1;jettySize=auto;html=1;entryX=1;entryY=0.5;entryDx=0;entryDy=0;" edge="1" parent="1" source="pAiBc-lid5p5WxfmYLZG-7" target="pAiBc-lid5p5WxfmYLZG-5">
          <mxGeometry relative="1" as="geometry" />
        </mxCell>
        <mxCell id="pAiBc-lid5p5WxfmYLZG-19" value="then" style="edgeLabel;html=1;align=center;verticalAlign=middle;resizable=0;points=[];" vertex="1" connectable="0" parent="pAiBc-lid5p5WxfmYLZG-8">
          <mxGeometry x="-0.4267" y="1" relative="1" as="geometry">
            <mxPoint as="offset" />
          </mxGeometry>
        </mxCell>
        <mxCell id="pAiBc-lid5p5WxfmYLZG-7" value="" style="rhombus;whiteSpace=wrap;html=1;" vertex="1" parent="1">
          <mxGeometry x="320" y="200" width="80" height="80" as="geometry" />
        </mxCell>
        <mxCell id="pAiBc-lid5p5WxfmYLZG-10" style="edgeStyle=orthogonalEdgeStyle;rounded=0;orthogonalLoop=1;jettySize=auto;html=1;" edge="1" parent="1" source="pAiBc-lid5p5WxfmYLZG-9" target="pAiBc-lid5p5WxfmYLZG-7">
          <mxGeometry relative="1" as="geometry" />
        </mxCell>
        <mxCell id="pAiBc-lid5p5WxfmYLZG-13" value="" style="edgeStyle=orthogonalEdgeStyle;rounded=0;orthogonalLoop=1;jettySize=auto;html=1;" edge="1" parent="1" source="pAiBc-lid5p5WxfmYLZG-9" target="pAiBc-lid5p5WxfmYLZG-12">
          <mxGeometry relative="1" as="geometry" />
        </mxCell>
        <mxCell id="pAiBc-lid5p5WxfmYLZG-9" value="" style="rhombus;whiteSpace=wrap;html=1;" vertex="1" parent="1">
          <mxGeometry x="460" y="200" width="80" height="80" as="geometry" />
        </mxCell>
        <mxCell id="pAiBc-lid5p5WxfmYLZG-15" value="" style="edgeStyle=orthogonalEdgeStyle;rounded=0;orthogonalLoop=1;jettySize=auto;html=1;" edge="1" parent="1" source="pAiBc-lid5p5WxfmYLZG-12" target="pAiBc-lid5p5WxfmYLZG-14">
          <mxGeometry relative="1" as="geometry" />
        </mxCell>
        <mxCell id="pAiBc-lid5p5WxfmYLZG-16" value="next" style="edgeLabel;html=1;align=center;verticalAlign=middle;resizable=0;points=[];" vertex="1" connectable="0" parent="pAiBc-lid5p5WxfmYLZG-15">
          <mxGeometry x="-0.1378" y="2" relative="1" as="geometry">
            <mxPoint as="offset" />
          </mxGeometry>
        </mxCell>
        <mxCell id="pAiBc-lid5p5WxfmYLZG-12" value="" style="ellipse;whiteSpace=wrap;html=1;" vertex="1" parent="1">
          <mxGeometry x="620" y="200" width="80" height="80" as="geometry" />
        </mxCell>
        <mxCell id="pAiBc-lid5p5WxfmYLZG-14" value="" style="rounded=1;whiteSpace=wrap;html=1;" vertex="1" parent="1">
          <mxGeometry x="600" y="370" width="120" height="60" as="geometry" />
        </mxCell>
        <mxCell id="pAiBc-lid5p5WxfmYLZG-18" value="" style="edgeStyle=orthogonalEdgeStyle;rounded=0;orthogonalLoop=1;jettySize=auto;html=1;" edge="1" parent="1" source="pAiBc-lid5p5WxfmYLZG-17" target="pAiBc-lid5p5WxfmYLZG-3">
          <mxGeometry relative="1" as="geometry" />
        </mxCell>
        <mxCell id="pAiBc-lid5p5WxfmYLZG-17" value="First" style="text;html=1;align=center;verticalAlign=middle;resizable=0;points=[];autosize=1;strokeColor=none;fillColor=none;" vertex="1" parent="1">
          <mxGeometry x="195" y="10" width="50" height="30" as="geometry" />
        </mxCell>
      </root>
    </mxGraphModel>
  </diagram>
</mxfile>
